<?xml version="1.0" encoding="utf-8"?>
<!-- Generator: Adobe Illustrator 13.0.0, SVG Export Plug-In . SVG Version: 6.00 Build 14948)  -->
<!DOCTYPE svg PUBLIC "-//W3C//DTD SVG 1.0//EN" "http://www.w3.org/TR/2001/REC-SVG-20010904/DTD/svg10.dtd">
<svg version="1.0" id="Layer_1" xmlns="http://www.w3.org/2000/svg" xmlns:xlink="http://www.w3.org/1999/xlink" x="0px" y="0px"
	 width="169px" height="26px" viewBox="0 0 169 26" enable-background="new 0 0 169 26" xml:space="preserve">
<g>
	<path fill="#515151" d="M22.589,4.167l-0.8-2.043h-2.575l-0.791,2.043h-0.756l2.54-6.451h0.628l2.527,6.451H22.589z M21.556,1.451
		L20.809-0.54c-0.097-0.252-0.196-0.561-0.299-0.927c-0.064,0.281-0.157,0.59-0.277,0.927l-0.756,1.991H21.556z"/>
	<path fill="#515151" d="M28.078-0.649v0.461l-0.892,0.105c0.082,0.103,0.155,0.237,0.22,0.402s0.097,0.352,0.097,0.56
		c0,0.472-0.161,0.848-0.483,1.129s-0.765,0.422-1.327,0.422c-0.144,0-0.278-0.012-0.404-0.035c-0.311,0.164-0.466,0.371-0.466,0.62
		c0,0.132,0.054,0.229,0.163,0.292s0.294,0.094,0.558,0.094h0.853c0.521,0,0.922,0.11,1.202,0.33s0.42,0.539,0.42,0.958
		c0,0.533-0.214,0.939-0.642,1.22c-0.428,0.279-1.052,0.419-1.872,0.419c-0.63,0-1.116-0.117-1.457-0.352s-0.512-0.565-0.512-0.993
		c0-0.293,0.094-0.546,0.281-0.76s0.451-0.359,0.791-0.435c-0.123-0.056-0.227-0.142-0.31-0.259
		c-0.084-0.117-0.125-0.253-0.125-0.409c0-0.176,0.047-0.33,0.141-0.461s0.242-0.259,0.444-0.382
		C24.506,2.175,24.303,2,24.147,1.754c-0.157-0.246-0.235-0.527-0.235-0.844c0-0.527,0.158-0.934,0.475-1.22
		c0.316-0.285,0.765-0.428,1.345-0.428c0.252,0,0.479,0.029,0.681,0.088H28.078z M24.237,4.976c0,0.261,0.11,0.458,0.33,0.593
		s0.535,0.202,0.945,0.202c0.612,0,1.065-0.092,1.36-0.274c0.294-0.184,0.441-0.432,0.441-0.745c0-0.261-0.081-0.441-0.242-0.543
		c-0.161-0.101-0.464-0.151-0.91-0.151h-0.875c-0.331,0-0.589,0.079-0.773,0.237S24.237,4.68,24.237,4.976z M24.632,0.893
		c0,0.337,0.095,0.592,0.286,0.765s0.456,0.259,0.795,0.259c0.712,0,1.068-0.346,1.068-1.037c0-0.724-0.36-1.085-1.081-1.085
		c-0.343,0-0.606,0.092-0.791,0.277S24.632,0.53,24.632,0.893z"/>
	<path fill="#515151" d="M31.264-0.737c0.214,0,0.406,0.018,0.576,0.053l-0.101,0.677c-0.199-0.044-0.375-0.066-0.527-0.066
		c-0.39,0-0.723,0.158-1,0.475c-0.277,0.316-0.416,0.71-0.416,1.182v2.584h-0.729v-4.816h0.602l0.083,0.892h0.035
		c0.179-0.313,0.394-0.555,0.646-0.725S30.962-0.737,31.264-0.737z"/>
	<path fill="#515151" d="M32.679-1.955c0-0.167,0.041-0.289,0.123-0.367c0.082-0.077,0.185-0.116,0.308-0.116
		c0.117,0,0.218,0.04,0.303,0.119s0.127,0.201,0.127,0.365s-0.042,0.287-0.127,0.367s-0.186,0.121-0.303,0.121
		c-0.123,0-0.226-0.04-0.308-0.121S32.679-1.791,32.679-1.955z M33.47,4.167H32.74v-4.816h0.729V4.167z"/>
	<path fill="#515151" d="M34.252-0.649h0.782l1.055,2.747c0.231,0.627,0.375,1.08,0.431,1.358h0.035
		c0.038-0.149,0.118-0.405,0.24-0.767c0.121-0.361,0.519-1.474,1.193-3.337h0.782L36.7,4.835c-0.205,0.542-0.445,0.926-0.719,1.154
		c-0.274,0.227-0.61,0.34-1.008,0.34c-0.223,0-0.442-0.025-0.659-0.075V5.67c0.161,0.035,0.341,0.053,0.541,0.053
		c0.501,0,0.858-0.281,1.072-0.844l0.268-0.686L34.252-0.649z"/>
	<path fill="#515151" d="M42.514,4.167l-0.145-0.686h-0.035c-0.24,0.302-0.48,0.506-0.719,0.613
		c-0.239,0.107-0.537,0.161-0.894,0.161c-0.478,0-0.852-0.123-1.123-0.369c-0.271-0.246-0.407-0.596-0.407-1.05
		c0-0.973,0.778-1.482,2.333-1.529l0.817-0.026V0.981c0-0.378-0.081-0.657-0.244-0.837c-0.162-0.181-0.422-0.271-0.78-0.271
		c-0.401,0-0.855,0.123-1.362,0.369l-0.224-0.558c0.237-0.129,0.497-0.23,0.78-0.303c0.282-0.073,0.566-0.11,0.85-0.11
		c0.574,0,1,0.127,1.277,0.382c0.276,0.255,0.415,0.664,0.415,1.226v3.287H42.514z M40.866,3.653c0.454,0,0.811-0.125,1.07-0.374
		c0.259-0.249,0.389-0.598,0.389-1.046V1.798l-0.729,0.031c-0.58,0.021-0.999,0.111-1.255,0.27c-0.256,0.16-0.384,0.408-0.384,0.745
		c0,0.264,0.08,0.464,0.24,0.602C40.355,3.584,40.579,3.653,40.866,3.653z"/>
</g>
<path fill="#F47564" d="M2.568,24.942h5.971v-5.97v-8.957H2.568V24.942z M15.519,1.06H5.553L2.568,7.03h12.951V1.06z M142.549,1.059
	h-2.984l-2.985,5.97h5.97V1.059z M154.49,1.059h-5.971v14.926h5.971V1.059z M26.45,8.524c0-0.516-0.039-0.909-0.108-1.375
	c0,0-6.945-0.056-6.876-0.029c0.676,0.199,1.015,0.666,1.015,1.403s-0.349,1.214-1.045,1.433c-0.02,0.02-0.08,0.03-0.179,0.03
	c-0.16,0-0.249,0.009-0.269,0.029h-7.351v5.971h7.351c0.219,0.021,0.378,0.05,0.478,0.091c0.676,0.198,1.015,0.666,1.015,1.403
	s-0.349,1.213-1.045,1.433c-0.02,0.019-0.08,0.028-0.179,0.028c-0.16,0-0.249,0.011-0.269,0.031h-7.351v5.97h7.351
	c0.616,0,1.263-0.1,1.94-0.299c1.512-0.379,2.716-1.016,3.612-1.91c1.273-1.273,1.91-3.025,1.91-5.254
	c0-0.957-0.114-1.803-0.343-2.539s-0.542-1.382-0.94-1.94c0.437-0.597,0.761-1.238,0.97-1.923C26.346,10.39,26.45,9.539,26.45,8.524
	z M47.346,13.001c-0.18,1.453-0.429,2.449-0.747,2.985c-0.975,1.99-2.717,2.986-5.224,2.986c-1.791,0-3.204-0.519-4.239-1.554
	c-0.716-0.715-1.224-1.68-1.521-2.896c-0.04-0.258-0.075-0.513-0.104-0.761c-0.029-0.25-0.064-0.503-0.104-0.762v-2.985v-0.001
	h-5.972v2.985c0.079,0.518,0.154,1.035,0.224,1.552c0.07,0.519,0.144,1.035,0.224,1.553c0.597,2.369,1.632,4.289,3.105,5.762
	c2.05,2.051,4.846,3.076,8.389,3.076c3.542,0,6.348-1.035,8.418-3.105c1.473-1.473,2.508-3.393,3.105-5.762
	c0.079-0.517,0.149-1.029,0.209-1.537c0.059-0.508,0.128-1.02,0.208-1.538V1.059h-5.97V13.001z M124.727,1.476
	c-0.578-0.138-1.119-0.243-1.627-0.313c-0.509-0.069-0.99-0.104-1.449-0.104h-8.955l-2.985,5.97h11.942
	c1.791,0,3.203,0.519,4.238,1.553c0.717,0.717,1.225,1.682,1.522,2.896c0.04,0.259,0.075,0.513,0.104,0.762s0.063,0.503,0.104,0.761
	c-0.18,1.453-0.428,2.449-0.746,2.985c-0.977,1.99-2.717,2.986-5.225,2.986c-1.791,0-3.205-0.519-4.239-1.554
	c-0.716-0.715-1.224-1.68-1.522-2.896c-0.039-0.258-0.074-0.513-0.104-0.761c-0.029-0.25-0.064-0.503-0.104-0.762
	c0.019-0.159,0.034-0.312,0.045-0.462c0.01-0.15,0.024-0.303,0.045-0.463c0.119-0.855,0.338-1.541,0.656-2.06h-6.447
	C109.8,10.91,109.71,11.906,109.71,13c0,3.543,1.035,6.349,3.104,8.418c1.474,1.473,3.394,2.508,5.763,3.105
	c0.577,0.139,1.118,0.245,1.627,0.313c0.507,0.07,0.989,0.105,1.446,0.105c0.877,0,1.912-0.15,3.105-0.449
	c2.368-0.596,4.288-1.631,5.762-3.104c2.049-2.051,3.074-4.846,3.074-8.39c0-3.542-1.035-6.348-3.104-8.418
	C129.016,3.109,127.094,2.074,124.727,1.476z M160.461,1.059v11.942c-0.179,1.453-0.428,2.449-0.746,2.985
	c-0.976,1.99-2.717,2.986-5.225,2.986h-5.971c-1.453-0.181-2.447-0.429-2.985-0.746c-1.99-0.976-2.985-2.718-2.985-5.226v-2.985
	h-5.971V13c0.08,0.518,0.154,1.036,0.225,1.553s0.145,1.035,0.225,1.552c0.596,2.369,1.631,4.289,3.104,5.763
	c2.051,2.051,4.848,3.075,8.389,3.075h5.972c0.876,0,1.911-0.149,3.104-0.448c2.368-0.597,4.288-1.631,5.762-3.104
	c2.05-2.052,3.074-4.847,3.074-8.39V1.059H160.461z M80.186,8.523c0-2.228-0.648-3.99-1.941-5.284
	c-0.936-0.896-2.14-1.532-3.612-1.91c-0.717-0.18-1.354-0.27-1.911-0.27H59.288l-2.985,5.97h16.419
	C72.941,7.05,73.1,7.08,73.2,7.119c0.676,0.199,1.015,0.667,1.015,1.404s-0.349,1.214-1.045,1.433c-0.02,0.02-0.08,0.03-0.179,0.03
	c-0.16,0-0.249,0.009-0.269,0.029H56.303v14.926h5.971v-8.957h10.448c0.736,0,1.214,0.349,1.433,1.046
	c0.02,0.021,0.03,0.079,0.03,0.18c0,0.16,0.01,0.25,0.03,0.27v7.463h5.971v-7.463c0-0.957-0.115-1.803-0.344-2.539
	S79.3,13.558,78.902,13c0.438-0.597,0.762-1.238,0.971-1.924C80.081,10.389,80.186,9.538,80.186,8.523z M105.77,13
	c0.438-0.597,0.762-1.236,0.971-1.923s0.313-1.538,0.313-2.553c0-2.228-0.646-3.99-1.939-5.284c-0.936-0.896-2.139-1.532-3.612-1.91
	c-0.717-0.18-1.353-0.27-1.911-0.27H86.156l-2.985,5.97H99.59c0.219,0.021,0.378,0.051,0.479,0.09
	c0.677,0.199,1.016,0.666,1.016,1.403s-0.35,1.214-1.045,1.433c-0.021,0.02-0.08,0.03-0.18,0.03c-0.16,0-0.25,0.009-0.27,0.029
	H83.171v14.926h5.972v-8.957H99.59c0.737,0,1.215,0.349,1.434,1.046c0.02,0.021,0.029,0.079,0.029,0.18c0,0.16,0.01,0.25,0.03,0.27
	v7.463h5.972v-7.463c0-0.957-0.117-1.803-0.345-2.539S106.168,13.558,105.77,13z"/>
</svg>
